Simulation
nRows=38
nColumns=15
endheader
time  TH_x TH_y TH_z SC_y  SC_z  SC_x  AC_y  AC_z  AC_x  GH_y  GH_z  GH_yy  EL_x  PS_y
2.2499999999999996  0.000000  0.000000  0.000000  -42.98886776692134  7.096803158932252  -0.2467567458396257  56.15328743340633  17.606822704931048  15.331405440999719  67.68680306638477  54.880453619986326  -65.85526342015324  21.632594946927856  120.000000
2.2949999999999995  0.000000  0.000000  0.000000  -43.054541044200185  7.174557043727087  0.2602920903935796  56.25969650251941  17.380224596730418  15.184767497971096  67.61862898946073  55.107006961828965  -65.77592117356912  22.074505326199017  120.000000
2.3399999999999994  0.000000  0.000000  0.000000  -43.050917427394  7.193857109187914  0.5550193868350808  56.314548523416086  17.20561036053264  15.057662213572256  67.59569399057334  55.28313895582046  -65.76004996736329  22.46938133378939  120.000000
2.3849999999999993  0.000000  0.000000  0.000000  -42.99670177927212  7.162652685418417  0.6640589877679965  56.311017694479425  17.101204010699792  14.94638995881194  67.5976661817167  55.43504739235425  -65.7524436424928  22.760997694439727  120.000000
2.4299999999999997  0.000000  0.000000  0.000000  -42.91001087689946  7.100868002146897  0.63677202603756  56.24432862809278  17.076648840335558  14.850159353500315  67.59944880869436  55.584405169982155  -65.69156932776961  22.923529927303605  120.000000
2.4749999999999996  0.000000  0.000000  0.000000  -42.808893494849116  7.041818349348839  0.545429194822702  56.11075387763453  17.134261414732823  14.771849656610218  67.57846581668808  55.742891037434525  -65.51138862994885  22.96288052601012  120.000000
2.5199999999999996  0.000000  0.000000  0.000000  -42.71260571769846  7.030167066907791  0.48176686868599555  55.90866669804217  17.26798619603477  14.716929421085997  67.52176825537349  55.913759682663674  -65.14520796040588  22.90581062756363  120.000000
2.5649999999999995  0.000000  0.000000  0.000000  -42.64162750599876  7.116066325478329  0.5489710987915329  55.641213992613544  17.45953551593896  14.692448217167184  67.42920995864043  56.09718449492805  -64.53412790169156  22.785990058744435  120.000000
2.6099999999999994  0.000000  0.000000  0.000000  -42.616020465995916  7.345312533680975  0.8487834806265468  55.319823205247516  17.673474933164872  14.704879142728782  67.31176259244167  56.299390936113625  -63.63988126848116  22.633002003364872  120.000000
2.6549999999999994  0.000000  0.000000  0.000000  -42.65276595653088  7.74963813886366  1.467797524105981  54.966938780882316  17.85573408484306  14.759443741232342  67.18701453353275  56.5388089641708  -62.4582925926492  22.466694805979575  120.000000
2.6999999999999993  0.000000  0.000000  0.000000  -42.76439607170403  8.341774508348657  2.467540879589983  54.61613312076972  17.94069815197798  14.859240302191074  67.07722970496806  56.846609408683314  -61.02565707688375  22.295410234658863  120.000000
2.7449999999999997  0.000000  0.000000  0.000000  -42.959789953771896  9.115905577188775  3.8803548853315206  54.308162848603864  17.864883305221788  15.006657338772287  67.01035444286299  57.25889038694616  -59.414398225476106  22.1185863036951  120.000000
2.7899999999999996  0.000000  0.000000  0.000000  -43.24687509429172  10.050879475233222  5.71056128209863  54.08412600821795  17.581102240211834  15.205462876541699  67.02174432849375  57.80569973290153  -57.718934104961214  21.931180163534975  120.000000
2.8349999999999995  0.000000  0.000000  0.000000  -43.63428197092911  11.114827689967631  7.938095234088935  53.9792278478366  17.066775433559997  15.46262452146257  67.15064896908456  58.502247570671045  -56.03918011183693  21.728032245492212  120.000000
2.8799999999999994  0.000000  0.000000  0.000000  -44.12874745620533  12.269983849772574  10.522545507740114  54.01798580905218  16.32411178077203  15.78934118788052  67.4319494973762  59.344939764382794  -54.46588995331847  21.50457166533037  120.000000
2.9249999999999994  0.000000  0.000000  0.000000  -44.731443883519255  13.47629045417614  13.406236084255966  54.214769236388925  15.372639790319326  16.19884342057323  67.88521186990931  60.314133235006885  -53.073640245872774  21.25679290633963  120.000000
2.9699999999999993  0.000000  0.000000  0.000000  -45.43375516048881  14.693587468909891  16.518338715195615  54.57626602201732  14.238613414185192  16.700540464640678  68.50700793473787  61.37970250703352  -51.91747900288125  20.9803787965923  120.000000
3.0149999999999992  0.000000  0.000000  0.000000  -46.212915516676354  15.88262871506791  19.780641228102322  55.103754714196135  12.94786974893681  17.290096052471306  69.26713225700193  62.5064025562584  -51.03205996472451  20.66999566461529  120.000000
3.0599999999999996  0.000000  0.000000  0.000000  -47.03538911262848  17.006375588727085  23.116191367775397  55.79023781439386  11.51904579757044  17.941546616562  70.1159785557266  63.657712445504046  -50.42520472492034  20.315923191512645  120.000000
3.1049999999999995  0.000000  0.000000  0.000000  -47.87120682954016  18.033372602953666  26.464259992671593  56.61331500831884  9.956246422333349  18.597906942589976  71.00073209356586  64.8003164500156  -50.07075121613781  19.905098647613006  120.000000
3.1499999999999995  0.000000  0.000000  0.000000  -48.7218032185037  18.94440547097368  29.805761626049136  57.52955672289714  8.230815751452816  19.16599577526235  71.88991313426725  65.91039168988118  -49.9022677101124  19.42606276399801  120.000000
3.1949999999999994  0.000000  0.000000  0.000000  -49.57275084021917  19.725680685158817  33.18868509578439  58.47253023524963  6.271529498831284  19.523060671767787  72.77771489732568  66.96602087412687  -49.81934664824749  18.86822035950809  120.000000
3.2399999999999993  0.000000  0.000000  0.000000  -50.35773146245344  20.351839878553484  36.6906071722025  59.36829607189125  4.007946897972143  19.549702472626276  73.66074250689354  67.94592923471278  -49.70786606728662  18.22683313041763  120.000000
3.2849999999999993  0.000000  0.000000  0.000000  -51.03656940030192  20.805822371572514  40.34657654218919  60.149570670822534  1.4327313305826241  19.19894737111614  74.51788666118604  68.82008751458108  -49.44865506696589  17.506610945400926  120.000000
3.329999999999999  0.000000  0.000000  0.000000  -51.58078737416966  21.127465690870007  44.07877694485902  60.74133282022406  -1.364659949214418  18.527689153746923  75.30076477713152  69.54145457207052  -48.960446266085164  16.718401042875154  120.000000
3.3749999999999996  0.000000  0.000000  0.000000  -51.959725854821215  21.38294663910643  47.689578999419254  61.095304898155284  -4.198797626518909  17.6633449429902  75.94803446458005  70.05442364797365  -48.2412678992142  15.885505545904376  120.000000
3.4199999999999995  0.000000  0.000000  0.000000  -52.18031976541642  21.60088090276385  50.93293269203538  61.22846185954136  -6.846830099275179  16.73087509268336  76.41659692879124  70.33002076353688  -47.38003921218532  15.058494825506493  120.000000
3.4649999999999994  0.000000  0.000000  0.000000  -52.26567900824662  21.765002133995292  53.58543518523903  61.20354033092659  -9.119329522409782  15.812053277557899  76.69047724997927  70.37488466613968  -46.53493202854278  14.31015051221351  120.000000
3.5099999999999993  0.000000  0.000000  0.000000  -52.228889143827644  21.838578793504194  55.47589618678471  61.088964829865446  -10.882750534623591  14.946303531222272  76.77844277860976  70.21849144063042  -45.8918985923265  13.717845971280633  120.000000
3.5549999999999993  0.000000  0.000000  0.000000  -52.07052864433995  21.787875175878455  56.48981657279507  60.93368860541143  -12.050948415414606  14.151614122063375  76.70520405667374  69.89127023111459  -45.62191813458275  13.347662209059571  120.000000
3.599999999999999  0.000000  0.000000  0.000000  -51.78256052734873  21.595956880019145  56.56651384286854  60.75693556852236  -12.567024457700157  13.437568432842268  76.50638959433624  69.41172524574816  -45.852346919004674  13.237439999028325  120.000000
3.644999999999999  0.000000  0.000000  0.000000  -51.35886207854668  21.262636284116947  55.693372698062035  60.551627148311894  -12.396495049619032  12.81744490148509  76.22534184753059  68.77975803103396  -46.65630498268986  13.391325597685775  120.000000
3.6899999999999995  0.000000  0.000000  0.000000  -50.805474035453855  20.80095440325242  53.89381125555399  60.29393248585432  -11.523959597941253  12.305725576288399  75.90856600814861  67.9908721530742  -48.05943081838395  13.78963709442868  120.000000
3.7349999999999994  0.000000  0.000000  0.000000  -50.14098484368688  20.223385114125723  51.21454065491776  59.95499599860532  -9.961226972672126  11.914523775335603  75.59840692379579  67.04999178389204  -50.045506517372274  14.399192348838726  120.000000
3.7799999999999994  0.000000  0.000000  0.000000  -49.40688145861566  19.539084208045047  47.72619716336053  59.50429198635056  -7.7650452207253196  11.648674325118193  75.33572303253216  65.98086610684396  -52.55605420396207  15.184522576604003  120.000000
3.8249999999999993  0.000000  0.000000  0.000000  -48.65201173498215  18.740855328682052  43.56279110549329  58.93279967045118  -5.057786674244809  11.497121665993577  75.14633791652837  64.82054750261106  -55.47637162842545  16.104363834080818  120.000000
3.869999999999999  0.000000  0.000000  0.000000  -47.90420460232423  17.796629443416123  38.93163924358525  58.27202338032205  -2.023717380237452  11.435262633598628  75.02421415883951  63.60864270713347  -58.63504750473597  17.114325835487577  120.000000
3.914999999999999  0.000000  0.000000  0.000000  -47.19206030867129  16.701619568531825  34.099670022334685  57.58837086609112  1.1166329783180438  11.449496480497121  74.92058131505136  62.369199694618565  -61.7998665099553  18.154493422565757  120.000000
